<svg viewBox="0 0 388.66898 389.45115" xml:space="preserve" xmlns="http://www.w3.org/2000/svg">
  <path d="M693.19811 137.88492c-24.76282.00011-44.837 20.0646-44.83684 44.81521.00004 11.87807 4.63195 22.66886 12.17817 30.68854.70726-.40931 1.47287-.67477 1.71103-.92244.29679-.2976 1.27862-.95235 2.06612-1.369 1.01039-.53567 2.95777-.93803 5.72475-1.191.6992-.0596 1.45743-.19325 1.68039-.28254l.43125-.16268-.0712-4.62748-.0577-4.62793.52047-.4317c.28204-.25296.78718-.62443 1.11395-.84763 1.55952-1.05648 2.0476-1.75699 2.72629-3.89972.16222-.53567.44234-1.3678.60474-1.84396.16223-.49105.26682-.90805.23702-.93775-.16416-.17856-.61114.25186-1.07023 1.05537-1.15534 1.96416-2.25265 3.12564-4.139 4.39045-2.56965 1.69632-2.89602 1.80063-5.7527 1.90479-1.72592.0595-2.3519.0438-2.35226-.0901-.00024-.0893.16364-.23744.37176-.31184.75813-.28272.37086-.44567-1.04275-.44567-1.5624 0-2.08409-.17875-3.12824-1.1162-.49221-.43151-.5375-.52084-.32941-.61014.14867-.0446.56504-.0159.92243.0883.53608.1488.75948.1488 1.1162 0 .53508-.22319.57971-.60975.16133-1.24959-.16431-.25297-.26972-.49023-.22532-.56463.0444-.0595.71422-.11987 1.4731-.11987.98208 0 1.60671-.0747 2.03773-.25325.52025-.20832 2.97193-1.57594 3.83348-2.1265.11879-.0893.32768-.19321.44657-.25281.11888-.0596.29566-.16436.36996-.22396.0891-.0596.48954-.38643.92018-.71379.4158-.31248.87732-.74568.99588-.92423.1334-.19344.81558-1.14443 1.54205-2.12651.71159-.98209 1.36216-1.91956 1.46588-2.08324 1.73315-2.88674 2.23847-3.67473 2.92051-4.58242.4448-.59519 1.3646-1.65291 2.0472-2.35227 1.52833-1.59215 2.4034-2.03807 4.26292-2.21663 3.09425-.2976 4.56746-.56652 6.39618-1.13197.37168-.11909.81733-.20819.99589-.20819.6696 0 3.40553-.77303 4.19307-1.17478.59436-.31249 2.82567-1.05762 3.13816-1.05762.41664 0 1.35167-.51944 1.30637-.72776-.0152-.11903-.28415-.34237-.58221-.50605-.5364-.26784-.64017-.55112-.19377-.55112.32737 0 1.36722-.58056 1.85703-1.04185.34136-.32736.44577-.55038.44477-.99678-.001-.52081.14523-.75803 1.2577-2.06747 1.18663-1.39872 1.55672-2.08436 1.31763-2.45637-.1046-.16368-1.1451-.1191-2.02241.1041-.31228.0744-.4159.0452-.41638-.13339-.00052-.19344 1.45359-1.69565 3.14582-3.21341.66799-.59521 1.21634-1.54912 1.46679-2.47169.17668-.69935.53033-1.62099.84132-2.17156.29611-.55056 1.3366-1.17524 1.97644-1.17524.61007 0 1.03888-.49148 1.2595-1.4438.47054-2.0832.84073-3.06583 1.30096-3.4527.0965-.0819.21436-.12333.35059-.12933.40868-.0181.97457.29479 1.55646.87512l.71604.71379.003 1.04185c.002.74401.0621 1.09943.24108 1.2631.32824.32736.49226.29814.65476-.13338.2512-.65473.65305-.46028 1.17659.55156l.47901.90621-.35599.31364c-.68316.58032-1.08102 2.33514-.69216 3.06425.14955.28272.42301 2.08354.56148 3.76499.0923 1.11599-.14183 2.2611-.51327 2.46943-.26745.14879-.19357.64051.25596 1.80115.56927 1.41361 1.3659 3.85402 1.36675 4.16649.00096.35716-.37117.40221-.50606.0451-.0748-.1637-.14937-.19432-.25325-.0901-.0891.0893-.0869.59605.0198 1.51861.19762 1.54752-.0194 4.40489-.37447 5.10425-.11848.2232-.20683.53479-.20639.69847.00044.16368-.16244.41675-.35554.53579-.32672.2232-.35522.34238-.41052 1.9048-.0838 2.05344-.0397 1.94897-2.60417 5.52017-.47439.65472-.78525 1.51822-1.04951 2.84255-.33776 1.65168-.692 2.70861-1.41677 4.31564-.82832 1.83024-.87095 2.14314-.5822 4.37513.13693 1.11599.39298 2.39615.543 2.84255.78002 2.32129 1.24294 3.39252 1.60107 3.76453.582.62496 2.05785 1.73987 2.29594 1.73987.22321 0 1.44528.3869 2.13056.6845.25322.0893.74426.29867 1.10178.44747.35752.14881 1.56636 1.04127 2.68483 1.96383 2.31164 1.93441 3.05749 2.44038 5.0691 3.48199.0998.0508.0721.0264.14961.0676 7.81989-8.06666 12.64136-19.05455 12.64141-31.17386.00016-24.75061-20.07402-44.8151-44.83685-44.81521zm-2.0152 53.72994c-.21203.004-.43988.0871-.62546.24334-.32659.28272-1.06653 1.6072-1.06573 1.9048.00028.10416-.29583.5801-.63674 1.07114-.71167.95233-2.2714 2.18744-3.44549 2.72313-1.51594.6696-1.67945.77348-1.8719 1.14549-.11843.2232-.19152.5199-.16132.69847.10593.65471.7191 2.27696 1.45237 3.8096.0899.20833.30083.80446.45107 1.34016.15026.53567.32964 1.02603.38934 1.10043.0598.0596.50669-.0139.98237-.19242.47571-.16368 1.17386-.37262 1.53078-.44702.37179-.0744 1.20413-.28244 1.85838-.46099 2.49799-.68449 3.01932-.77503 4.56664-.84943 1.19024-.0596 1.80029-.0141 2.39598.16448.46163.13393.98224.23748 1.17568.23748.35713 0 1.46035.32739 2.32433.6845.26817.11909.65552.20819.86385.20819.19344 0 .93733.14995 1.63713.31363.83389.2232 1.32551.2682 1.41451.1789.16325-.16368-.57167-1.71285-2.12695-4.58467l-.80662-1.48707-.0541-3.45269c-.0513-2.47009-.1129-3.46713-.24694-3.51173-.0894-.0446-.77349.0004-1.50239.0748-.74381.0743-1.47434.13339-1.63802.13339-.16374-.0149-1.47294-.0738-2.90158-.13339-2.55965-.10416-3.00499-.19391-3.42296-.68495-.12691-.15617-.32421-.23157-.53625-.22757zm14.58812 6.73867c-.10792-.0149-.21074.22297-.34337.70658-.10322.34224-.0426.72947.2573 1.59251.21.62497.44935 1.23374.53895 1.33791.0747.10416.19476.43104.25506.74353.0604.29759.19539.8483.28569 1.2203.0903.372.19534.8493.24064 1.05762.0454.28272.19614.41726.46414.47676.52102.0893.57934-.15033.23433-1.17704-.165-.49104-.40551-1.27856-.54075-1.7696-.13525-.49104-.31567-1.10209-.40557-1.34017-.16494-.46127-.28505-.87754-.61555-2.03818-.15024-.52824-.26293-.79532-.37087-.81022zm-25.83169 1.80295c-.20288-.0483-.45283.004-.77237.15321-.23775.11903-.59384.20862-.77237.22352-.31248 0-.5664.10323-2.06747.77282-1.293.58032-1.6768 1.3686-1.6858 3.43692.004 1.4136.27316 1.89065 1.58531 2.88762l1.08691.81833.41728-.29831c.51985-.35712 1.48549-.7726 2.64517-1.12972.4906-.16369 1.14421-.3726 1.45642-.47676.29728-.11899.78751-.20819 1.07024-.20819.63986 0 .69994-.1037.37087-.74354-.16443-.28272-.34329-.6542-.41819-.81788-.0897-.16368-.32843-.55092-.53759-.8634s-.39016-.59577-.39024-.62547c-.00008-.0297-.28386-.55074-.6426-1.14594-.34386-.59521-.732-1.29406-.85168-1.53213-.13462-.25297-.29103-.40278-.49389-.45108zm45.18383 14.0014c-.19013.1942-.38549.38184-.5786.5723.19401-.18972.38804-.37911.5786-.5723zm-63.65454.20504.0392.0392c-.0129-.0133-.0263-.0259-.0392-.0392z" style="fill:#ffd60a;stroke-width:0.296999" transform="matrix(4.33425 0 0 4.33425 -2810.1585 -597.62743)"/>
  <path d="M712.10729 151.31312c-.13623.006-.25409.0474-.35059.12933-.46023.38687-.83042 1.3695-1.30096 3.4527-.22062.95232-.64943 1.4438-1.2595 1.4438-.63984 0-1.68033.62468-1.97644 1.17524-.31099.55057-.66464 1.4722-.84132 2.17156-.25045.92257-.7988 1.87648-1.46679 2.47169-1.69223 1.51776-3.14634 3.01997-3.14582 3.21341.00048.17861.1041.20779.41638.13339.87731-.2232 1.91781-.26778 2.02241-.1041.23909.37201-.131 1.05765-1.31763 2.45637-1.11247 1.30944-1.2587 1.54666-1.2577 2.06747.001.4464-.10341.66942-.44477.99678-.48981.46129-1.52966 1.04185-1.85703 1.04185-.4464 0-.34263.28328.19377.55112.29806.16368.56701.38702.58221.50605.0453.20832-.88973.72776-1.30637.72776-.31249 0-2.5438.74513-3.13816 1.05762-.78755.40175-3.52347 1.17478-4.19307 1.17478-.17856 0-.62421.0891-.99589.20819-1.82872.56545-3.30193.83437-6.39618 1.13197-1.85952.17856-2.73459.62448-4.26292 2.21663-.6826.69936-1.6024 1.75708-2.0472 2.35227-.68204.90769-1.18736 1.69568-2.92051 4.58242-.10372.16368-.75429 1.10115-1.46588 2.08324-.72647.98208-1.40865 1.93307-1.54205 2.12651-.11856.17855-.58008.61175-.99588.92423-.43064.32736-.83109.65419-.92018.71379-.0743.0596-.25108.16436-.36996.22396-.11889.0596-.32778.16351-.44657.25281-.86155.55057-3.31323 1.91818-3.83348 2.1265-.43102.17856-1.05565.25325-2.03773.25325-.75888 0-1.4287.0604-1.4731.11987-.0444.0744.061.31166.22532.56463.41838.63984.37375 1.0264-.16133 1.24959-.35672.1488-.58012.1488-1.1162 0-.35739-.1042-.77376-.13294-.92243-.0883-.20809.0893-.1628.17863.32941.61014 1.04415.93745 1.56584 1.1162 3.12824 1.1162 1.41361 0 1.80088.16295 1.04275.44567-.20812.0744-.372.22254-.37176.31184.00036.1339.62634.14965 2.35226.0901 2.85668-.10416 3.18305-.20847 5.7527-1.90479 1.88636-1.26481 2.98366-2.42629 4.139-4.39045.45909-.80351.90606-1.23393 1.07023-1.05537.0298.0297-.0748.4467-.23702.93775-.1624.47616-.44252 1.30829-.60474 1.84396-.67869 2.14273-1.16676 2.84324-2.72629 3.89972-.32677.2232-.83191.59467-1.11395.84763l-.52047.4317.0577 4.62793.0712 4.62748-.43125.16268c-.22296.0893-.98119.22294-1.68039.28254-2.76699.25297-4.71436.65533-5.72475 1.191-.7875.41665-1.76933 1.07139-2.06612 1.369-.2394.24896-1.01152.51487-1.72184.92784l.43124.45243c8.4607 9.04263 20.0138 13.85785 32.39732 13.8928 12.15459-.0407 23.61855-5.10325 32.04762-13.86035-.1031-.0566-.0536-.0179-.16087-.0725-2.01161-1.04161-2.75746-1.54757-5.0691-3.48199-1.11847-.92256-2.32731-1.81502-2.68483-1.96383-.35753-.1488-.84856-.35817-1.10178-.44747-.68529-.2976-1.90735-.6845-2.13056-.6845-.23809 0-1.71394-1.11491-2.29594-1.73987-.35813-.37201-.82105-1.44324-1.60107-3.76453-.15002-.4464-.40607-1.72656-.543-2.84255-.28875-2.232-.24613-2.54489.5822-4.37513.72477-1.60704 1.07901-2.66396 1.41677-4.31564.26426-1.32433.57512-2.18783 1.04951-2.84255 2.5645-3.5712 2.52037-3.46672 2.60417-5.52017.0553-1.56242.0838-1.6816.41052-1.9048.1931-.11904.35598-.37211.35554-.53579-.00044-.16368.0879-.47527.20639-.69847.35512-.69936.57209-3.55673.37447-5.10425-.1067-.92256-.10895-1.42931-.0198-1.51861.10388-.1042.17845-.0736.25325.0901.13489.35715.50702.3121.50606-.0451-.00085-.31247-.79748-2.75288-1.36675-4.16649-.44953-1.16064-.52341-1.65236-.25596-1.80115.37144-.20833.60557-1.35344.51327-2.46943-.13847-1.68145-.41193-3.48227-.56148-3.76499-.38886-.72911.009-2.48393.69216-3.06425l.35599-.31364-.47901-.90621c-.52354-1.01184-.92539-1.20629-1.17659-.55156-.1625.43152-.32652.46074-.65476.13338-.17898-.16367-.23908-.51909-.24108-1.2631l-.003-1.04185-.71604-.71379c-.58189-.58033-1.14778-.89322-1.55646-.87512zm-20.92438 40.30174c.21204-.004.40934.0714.53625.22757.41797.49104.86331.58079 3.42296.68495 1.42864.0596 2.73784.11849 2.90158.13339.16368 0 .89421-.0591 1.63802-.13339.7289-.0744 1.41299-.11941 1.50239-.0748.13404.0446.19564 1.04164.24694 3.51173l.0541 3.45269.80662 1.48707c1.55528 2.87183 2.2902 4.42099 2.12695 4.58467-.089.0893-.58062.0443-1.41451-.1789-.6998-.16368-1.44369-.31363-1.63713-.31363-.20833 0-.59568-.0891-.86385-.20819-.86399-.35711-1.9672-.6845-2.32433-.6845-.19345 0-.71405-.10355-1.17568-.23748-.59569-.17859-1.20574-.22408-2.39598-.16448-1.54733.0744-2.06864.16494-4.56664.84943-.65425.17855-1.48659.38659-1.85838.46099-.35692.0744-1.05507.28334-1.53078.44702-.47568.17855-.92257.25202-.98237.19242-.0597-.0744-.23908-.56476-.38934-1.10043-.15024-.5357-.36117-1.13183-.45107-1.34016-.73327-1.53264-1.34644-3.15489-1.45237-3.8096-.0302-.17857.0429-.47527.16132-.69847.19245-.37201.35596-.47589 1.8719-1.14549 1.17409-.53569 2.73382-1.7708 3.44549-2.72313.34091-.49104.63702-.96698.63674-1.07114-.0008-.2976.73914-1.62208 1.06573-1.9048.18558-.15626.41343-.23934.62546-.24334zm14.58812 6.73867c.10794.0149.22063.28198.37087.81022.3305 1.16064.45061 1.5769.61555 2.03818.0899.23808.27032.84913.40557 1.34017.13524.49104.37575 1.27856.54075 1.7696.34501 1.02671.28669 1.26634-.23433 1.17704-.268-.0595-.41874-.19404-.46414-.47676-.0453-.20832-.15034-.68562-.24064-1.05762-.0903-.372-.22529-.92271-.28569-1.2203-.0603-.31249-.18036-.63937-.25506-.74353-.0896-.10417-.32895-.71294-.53895-1.33791-.29987-.86304-.36052-1.25027-.2573-1.59251.13263-.48361.23545-.72148.34337-.70658zm-25.83169 1.80295c.20286.0483.35927.19811.49389.45108.11968.23807.50782.93692.85168 1.53213.35874.5952.64252 1.11624.6426 1.14594.00008.0297.18108.31299.39024.62547.20916.31248.4479.69972.53759.8634.0749.16368.25376.53516.41819.81788.32907.63984.26899.74354-.37087.74354-.28273 0-.77296.0892-1.07024.20819-.31221.10416-.96582.31307-1.45642.47676-1.15968.35712-2.12532.7726-2.64517 1.12972l-.41728.29831-1.08691-.81833c-1.31215-.99697-1.58131-1.47402-1.58531-2.88762.009-2.06832.3928-2.8566 1.6858-3.43692 1.50107-.66959 1.75499-.77282 2.06747-.77282.17853-.0149.53462-.10449.77237-.22352.31954-.14902.56949-.20151.77237-.15321z" style="fill:#313639;stroke-width:0.236104" transform="matrix(4.33425 0 0 4.33425 -2810.1585 -597.62743)"/>
</svg>
